<?xml version="1.0" standalone="no"?>
<!DOCTYPE svg PUBLIC "-//W3C//DTD SVG 20010904//EN"
 "http://www.w3.org/TR/2001/REC-SVG-20010904/DTD/svg10.dtd">
<svg version="1.0" xmlns="http://www.w3.org/2000/svg"
 width="1024.000000pt" height="1024.000000pt" viewBox="0 0 1024.000000 1024.000000"
 preserveAspectRatio="xMidYMid meet">
<metadata>
Created by potrace 1.16, written by Peter Selinger 2001-2019
</metadata>
<g transform="translate(0.000000,1024.000000) scale(0.100000,-0.100000)"
fill="#000000" stroke="none">
<path d="M4990 7864 c-234 -161 -543 -290 -945 -394 -392 -102 -613 -130
-1052 -137 l-323 -5 0 -187 c0 -521 61 -1101 155 -1489 208 -858 538 -1560
983 -2093 333 -400 759 -759 1147 -969 44 -24 91 -51 105 -61 30 -20 39 -16
175 66 409 248 723 510 981 816 22 25 74 85 117 134 96 109 201 267 300 450
221 412 332 673 442 1035 231 762 318 1310 327 2055 l3 240 -230 2 c-266 1
-443 9 -570 24 -230 27 -682 141 -911 229 -165 64 -376 170 -504 254 -63 42
-119 76 -125 75 -5 0 -39 -20 -75 -45z m214 -243 c394 -230 909 -393 1446
-456 69 -8 221 -18 338 -22 l212 -6 0 -41 c-1 -136 -22 -523 -35 -646 -92
-873 -348 -1727 -712 -2375 -72 -127 -263 -410 -359 -530 -132 -165 -490 -518
-678 -668 -148 -118 -326 -247 -341 -247 -13 0 -227 169 -401 316 -585 496
-999 1035 -1284 1674 -247 552 -417 1207 -485 1860 -14 134 -35 505 -35 611
l0 45 268 12 c147 7 314 19 371 27 578 80 1077 240 1446 463 55 34 103 61 108
62 4 0 68 -35 141 -79z"/>
<path d="M4858 7066 c-82 -29 -128 -57 -192 -116 -113 -104 -169 -238 -170
-400 0 -159 57 -279 211 -440 98 -103 136 -130 157 -115 7 6 47 33 87 61 82
57 111 85 93 91 -6 2 -60 36 -120 74 -302 197 -388 397 -266 623 54 101 180
200 301 236 l26 8 -30 1 c-16 0 -60 -10 -97 -23z"/>
<path d="M5275 7067 c116 -56 210 -149 267 -265 29 -59 33 -76 33 -152 0 -77
-3 -92 -33 -153 -44 -88 -127 -170 -276 -272 -65 -44 -144 -101 -177 -127 -32
-26 -100 -75 -151 -109 -129 -87 -293 -253 -340 -344 -50 -96 -68 -165 -68
-254 0 -130 40 -248 123 -371 36 -53 136 -160 190 -202 36 -29 39 -29 55 -14
9 10 48 40 85 67 l68 51 -96 100 c-112 116 -157 182 -180 263 -35 119 -3 224
103 347 88 101 168 167 365 300 243 165 322 240 386 367 31 60 61 184 61 251
0 71 -30 191 -66 262 -40 78 -153 186 -244 231 -41 21 -93 40 -115 43 l-40 5
50 -24z"/>
<path d="M5005 6942 c-57 -27 -91 -65 -104 -116 -19 -75 3 -141 63 -194 60
-53 163 -56 236 -8 47 31 69 70 76 134 15 134 -146 243 -271 184z"/>
<path d="M4913 6533 c-7 -2 -13 -22 -13 -44 l0 -39 191 0 190 0 -3 43 -3 42
-175 2 c-96 1 -181 -1 -187 -4z"/>
<path d="M5054 6417 c-7 -18 -9 -74 -6 -174 2 -81 3 -83 27 -83 38 0 46 28 43
152 l-3 113 -28 3 c-16 2 -29 -2 -33 -11z"/>
<path d="M5250 5880 c-36 -22 -76 -48 -89 -58 l-24 -19 43 -34 c74 -60 181
-190 217 -266 32 -67 35 -79 31 -146 -3 -61 -10 -87 -42 -152 -50 -100 -133
-185 -362 -368 -94 -75 -191 -158 -214 -184 -129 -145 -143 -332 -38 -494 40
-63 143 -172 213 -226 l40 -31 -22 -24 c-12 -13 -34 -50 -50 -83 -26 -56 -28
-68 -27 -185 0 -113 3 -134 32 -220 18 -52 37 -102 43 -110 9 -12 10 -11 4 5
-4 11 -16 54 -27 95 -27 97 -30 287 -6 341 17 38 75 109 89 109 5 0 9 -95 10
-212 1 -117 4 -251 8 -298 7 -77 8 -70 9 75 1 88 7 227 14 308 l11 148 32 -31
c18 -18 45 -57 61 -88 28 -54 29 -63 28 -182 0 -96 -6 -145 -23 -209 -12 -46
-20 -85 -18 -87 6 -6 65 194 78 264 26 140 -5 272 -86 361 l-38 41 107 101
c88 84 112 113 143 177 36 71 38 82 38 166 0 77 -4 99 -26 146 -30 64 -112
175 -135 184 -14 5 -134 -66 -134 -80 0 -4 22 -31 50 -61 50 -54 80 -124 80
-183 0 -70 -52 -175 -133 -268 l-38 -44 5 64 c3 34 8 156 12 271 6 178 5 207
-8 207 -8 0 -24 -10 -36 -23 -21 -22 -21 -28 -12 -98 5 -41 12 -155 16 -254
l6 -180 -65 66 c-78 80 -119 160 -125 240 -8 113 52 185 324 382 315 228 434
405 434 647 0 176 -51 289 -195 437 -61 63 -108 103 -120 103 -11 0 -49 -18
-85 -40z"/>
<path d="M5071 5746 l-33 -34 11 -223 c6 -123 14 -300 17 -392 7 -183 22 -213
30 -61 11 205 22 730 15 737 -4 4 -22 -8 -40 -27z"/>
</g>
</svg>
